<?xml version="1.0" encoding="utf-8"?>
<!-- Generator: Adobe Illustrator 16.0.0, SVG Export Plug-In . SVG Version: 6.00 Build 0)  -->
<!DOCTYPE svg PUBLIC "-//W3C//DTD SVG 1.1//EN" "http://www.w3.org/Graphics/SVG/1.1/DTD/svg11.dtd">
<svg version="1.1" id="Layer_1" xmlns="http://www.w3.org/2000/svg" xmlns:xlink="http://www.w3.org/1999/xlink" x="0px" y="0px"
	 width="452px" height="452px" viewBox="0 0 452 452" enable-background="new 0 0 452 452" xml:space="preserve">
<polygon fill="#FE2BFF" points="452,452 0,452 452,0 "/>
<g enable-background="new    ">
	<path fill="#FFFFFF" d="M333.363,203.256v130.208h77.857v29.532H298.238v-159.74H333.363z"/>
</g>
<g enable-background="new    ">
	<path fill="#FFFFFF" d="M273.855,389.178v30.321h18.078v3.826h-22.622v-34.147H273.855z"/>
	<path fill="#FFFFFF" d="M295.018,399.532c0.686-2.152,1.713-4.058,3.084-5.716c1.371-1.657,3.077-2.98,5.118-3.969
		c2.04-0.988,4.415-1.482,7.126-1.482c2.709,0,5.085,0.494,7.126,1.482c2.04,0.988,3.746,2.312,5.117,3.969
		c1.37,1.658,2.399,3.563,3.085,5.716s1.027,4.393,1.027,6.72s-0.342,4.566-1.027,6.719s-1.715,4.058-3.085,5.716
		c-1.371,1.658-3.077,2.973-5.117,3.945c-2.041,0.972-4.417,1.459-7.126,1.459c-2.711,0-5.086-0.487-7.126-1.459
		c-2.041-0.973-3.747-2.287-5.118-3.945s-2.398-3.563-3.084-5.716s-1.028-4.392-1.028-6.719S294.332,401.685,295.018,399.532z
		 M299.202,411.345c0.446,1.674,1.147,3.181,2.104,4.52s2.184,2.415,3.683,3.229c1.498,0.812,3.283,1.22,5.356,1.22
		c2.072,0,3.857-0.407,5.356-1.22c1.498-0.813,2.726-1.89,3.683-3.229s1.657-2.846,2.104-4.52c0.447-1.674,0.67-3.371,0.67-5.093
		c0-1.723-0.223-3.42-0.67-5.094c-0.446-1.674-1.146-3.181-2.104-4.52s-2.185-2.415-3.683-3.229c-1.499-0.812-3.284-1.22-5.356-1.22
		c-2.073,0-3.858,0.407-5.356,1.22c-1.499,0.813-2.726,1.89-3.683,3.229s-1.658,2.846-2.104,4.52s-0.669,3.371-0.669,5.094
		C298.533,407.974,298.756,409.671,299.202,411.345z"/>
	<path fill="#FFFFFF" d="M352.887,394.008c-1.738-1.211-3.803-1.817-6.193-1.817c-2.041,0-3.787,0.383-5.237,1.148
		c-1.452,0.765-2.647,1.793-3.587,3.085c-0.941,1.291-1.635,2.766-2.08,4.424c-0.447,1.658-0.67,3.38-0.67,5.165
		c0,1.944,0.223,3.786,0.67,5.523c0.445,1.738,1.139,3.252,2.08,4.544c0.939,1.291,2.144,2.319,3.611,3.084
		c1.465,0.766,3.219,1.148,5.26,1.148c1.498,0,2.83-0.247,3.994-0.741c1.163-0.494,2.168-1.18,3.013-2.057s1.507-1.921,1.985-3.133
		c0.478-1.211,0.765-2.519,0.86-3.922h4.544c-0.447,4.305-1.93,7.652-4.448,10.044c-2.519,2.391-5.963,3.587-10.331,3.587
		c-2.646,0-4.957-0.455-6.934-1.363c-1.979-0.909-3.619-2.16-4.927-3.755c-1.308-1.594-2.288-3.475-2.94-5.643
		c-0.654-2.168-0.98-4.496-0.98-6.983c0-2.486,0.35-4.821,1.052-7.006c0.7-2.184,1.729-4.089,3.085-5.715
		c1.354-1.627,3.044-2.909,5.068-3.851c2.025-0.939,4.345-1.41,6.959-1.41c1.785,0,3.475,0.238,5.07,0.717
		c1.594,0.479,3.013,1.18,4.256,2.104c1.244,0.925,2.279,2.08,3.109,3.467c0.828,1.388,1.37,2.989,1.625,4.807h-4.543
		C355.748,397.038,354.623,395.221,352.887,394.008z"/>
	<path fill="#FFFFFF" d="M381.078,389.178l13.344,34.147H389.4l-3.73-10.282h-14.443l-3.826,10.282h-4.639l13.295-34.147H381.078z
		 M384.234,409.217l-5.69-15.926h-0.096l-5.787,15.926H384.234z"/>
	<path fill="#FFFFFF" d="M402.312,389.178v30.321h18.078v3.826H397.77v-34.147H402.312z"/>
</g>
</svg>
