<?xml version="1.0" encoding="utf-8"?>
<!-- Generator: Adobe Illustrator 16.0.0, SVG Export Plug-In . SVG Version: 6.00 Build 0)  -->
<!DOCTYPE svg PUBLIC "-//W3C//DTD SVG 1.1//EN" "http://www.w3.org/Graphics/SVG/1.1/DTD/svg11.dtd">
<svg version="1.1" id="Layer_1" xmlns="http://www.w3.org/2000/svg" xmlns:xlink="http://www.w3.org/1999/xlink" x="0px" y="0px"
	 width="452px" height="452px" viewBox="0 0 452 452" enable-background="new 0 0 452 452" xml:space="preserve">
<polygon fill="#3100B6" points="452,452 0,452 452,0 "/>
<g enable-background="new    ">
	<path fill="#FFFFFF" d="M325.086,323.62c1.937,3.73,4.51,6.751,7.719,9.062c3.205,2.313,6.971,4.026,11.298,5.146
		c4.324,1.118,8.799,1.678,13.423,1.678c3.133,0,6.488-0.259,10.068-0.783c3.58-0.521,6.936-1.527,10.068-3.021
		c3.131-1.489,5.739-3.541,7.83-6.152c2.086-2.607,3.132-5.929,3.132-9.955c0-4.324-1.381-7.831-4.14-10.516
		c-2.761-2.685-6.375-4.922-10.85-6.712s-9.547-3.355-15.214-4.698c-5.67-1.342-11.409-2.831-17.227-4.475
		c-5.968-1.489-11.784-3.317-17.45-5.48c-5.67-2.161-10.739-4.957-15.214-8.391c-4.475-3.429-8.093-7.718-10.851-12.863
		c-2.762-5.146-4.139-11.372-4.139-18.682c0-8.201,1.751-15.325,5.258-21.365c3.502-6.041,8.088-11.075,13.758-15.102
		c5.667-4.027,12.082-7.01,19.241-8.949c7.159-1.937,14.318-2.908,21.478-2.908c8.352,0,16.367,0.933,24.051,2.796
		c7.68,1.867,14.504,4.888,20.471,9.062c5.963,4.177,10.7,9.508,14.207,15.996c3.502,6.488,5.257,14.356,5.257,23.603h-34.007
		c-0.3-4.771-1.307-8.725-3.02-11.857c-1.717-3.132-3.992-5.593-6.824-7.383c-2.834-1.79-6.078-3.055-9.731-3.803
		c-3.657-0.745-7.646-1.119-11.97-1.119c-2.835,0-5.67,0.301-8.502,0.896c-2.834,0.598-5.407,1.643-7.718,3.132
		c-2.314,1.492-4.216,3.355-5.705,5.593c-1.493,2.237-2.237,5.072-2.237,8.502c0,3.132,0.594,5.67,1.79,7.606
		c1.192,1.94,3.541,3.73,7.048,5.369c3.502,1.644,8.351,3.283,14.541,4.922c6.188,1.644,14.28,3.73,24.274,6.265
		c2.981,0.598,7.121,1.678,12.417,3.244c5.293,1.566,10.551,4.065,15.772,7.495c5.22,3.433,9.732,8.019,13.536,13.759
		c3.803,5.743,5.705,13.088,5.705,22.037c0,7.31-1.42,14.095-4.252,20.359c-2.834,6.264-7.047,11.672-12.641,16.22
		c-5.592,4.552-12.527,8.093-20.806,10.627s-17.863,3.804-28.749,3.804c-8.803,0-17.338-1.084-25.616-3.244
		c-8.278-2.161-15.587-5.555-21.925-10.18c-6.342-4.621-11.375-10.516-15.102-17.675c-3.73-7.159-5.52-15.66-5.369-25.505h34.006
		C322.178,315.343,323.146,319.894,325.086,323.62z"/>
</g>
<g enable-background="new    ">
	<path fill="#FFFFFF" d="M286.409,393.841c-1.515-1.1-3.452-1.65-5.812-1.65c-0.956,0-1.896,0.096-2.821,0.287
		s-1.745,0.511-2.463,0.957s-1.291,1.044-1.722,1.793c-0.43,0.75-0.646,1.683-0.646,2.798c0,1.053,0.311,1.905,0.933,2.559
		c0.621,0.654,1.45,1.188,2.486,1.603s2.208,0.758,3.516,1.028c1.307,0.271,2.638,0.566,3.994,0.885
		c1.354,0.318,2.686,0.693,3.992,1.124c1.308,0.43,2.479,1.012,3.516,1.745c1.035,0.734,1.865,1.658,2.486,2.774
		c0.623,1.116,0.934,2.519,0.934,4.208c0,1.817-0.406,3.372-1.22,4.663s-1.858,2.344-3.133,3.156
		c-1.275,0.813-2.702,1.403-4.28,1.77s-3.148,0.551-4.711,0.551c-1.913,0-3.723-0.239-5.428-0.718
		c-1.707-0.479-3.205-1.203-4.496-2.176s-2.312-2.216-3.061-3.73c-0.75-1.515-1.124-3.308-1.124-5.381h4.304
		c0,1.435,0.279,2.671,0.838,3.707c0.557,1.036,1.291,1.889,2.199,2.559c0.909,0.669,1.969,1.164,3.181,1.482
		c1.212,0.319,2.455,0.479,3.73,0.479c1.021,0,2.048-0.096,3.085-0.287c1.035-0.191,1.969-0.518,2.798-0.98
		c0.829-0.462,1.498-1.092,2.009-1.89c0.51-0.796,0.765-1.817,0.765-3.061c0-1.179-0.311-2.136-0.933-2.869
		c-0.621-0.733-1.451-1.331-2.486-1.794c-1.037-0.462-2.209-0.837-3.516-1.124c-1.308-0.286-2.639-0.581-3.993-0.885
		c-1.356-0.303-2.687-0.652-3.993-1.052c-1.309-0.398-2.48-0.925-3.516-1.578c-1.037-0.653-1.865-1.498-2.486-2.535
		c-0.622-1.035-0.934-2.335-0.934-3.897c0-1.722,0.352-3.212,1.053-4.472c0.701-1.259,1.633-2.296,2.798-3.108
		c1.163-0.813,2.487-1.419,3.97-1.817s3.004-0.598,4.566-0.598c1.754,0,3.38,0.207,4.879,0.621c1.498,0.415,2.813,1.068,3.945,1.961
		c1.131,0.893,2.024,2.017,2.678,3.372c0.654,1.355,1.012,2.973,1.076,4.854h-4.304C288.808,396.719,287.923,394.94,286.409,393.841
		z"/>
	<path fill="#FFFFFF" d="M296.668,393.004v-3.826h27.308v3.826h-11.382v30.321h-4.544v-30.321H296.668z"/>
	<path fill="#FFFFFF" d="M337.654,389.178l13.343,34.147h-5.021l-3.73-10.282h-14.443l-3.826,10.282h-4.64l13.296-34.147H337.654z
		 M340.811,409.217l-5.691-15.926h-0.096l-5.787,15.926H340.811z"/>
	<path fill="#FFFFFF" d="M374.91,422.919c-1.979,0.78-3.971,1.172-5.979,1.172c-2.551,0-4.83-0.472-6.84-1.411
		c-2.008-0.94-3.715-2.208-5.117-3.803c-1.402-1.594-2.471-3.427-3.204-5.499s-1.1-4.225-1.1-6.457c0-2.486,0.343-4.854,1.028-7.102
		c0.686-2.248,1.705-4.217,3.061-5.907c1.355-1.689,3.045-3.036,5.069-4.041c2.024-1.004,4.392-1.506,7.103-1.506
		c1.849,0,3.594,0.215,5.236,0.646c1.643,0.43,3.109,1.107,4.4,2.032s2.375,2.097,3.252,3.516s1.475,3.132,1.793,5.141h-4.543
		c-0.223-1.307-0.639-2.431-1.243-3.371c-0.606-0.94-1.356-1.714-2.248-2.32c-0.894-0.604-1.905-1.06-3.036-1.362
		c-1.133-0.303-2.337-0.455-3.611-0.455c-2.073,0-3.85,0.415-5.332,1.244c-1.483,0.829-2.695,1.921-3.635,3.275
		c-0.941,1.355-1.635,2.902-2.081,4.64c-0.446,1.738-0.669,3.515-0.669,5.332c0,1.786,0.254,3.5,0.765,5.142
		c0.51,1.643,1.259,3.093,2.247,4.352c0.988,1.261,2.208,2.265,3.659,3.014c1.45,0.749,3.133,1.124,5.046,1.124
		c1.785,0,3.363-0.287,4.734-0.861s2.527-1.363,3.467-2.367c0.941-1.004,1.65-2.184,2.129-3.539
		c0.479-1.354,0.686-2.813,0.621-4.376h-10.903v-3.826h14.97v17.982h-2.87l-1.196-4.257
		C378.545,420.854,376.887,422.138,374.91,422.919z"/>
	<path fill="#FFFFFF" d="M414.222,389.178v3.826h-19.034v10.856h17.742v3.826h-17.742v11.812h19.178v3.826h-23.722v-34.147H414.222z
		"/>
</g>
</svg>
